<mxfile host="Electron" agent="Mozilla/5.0 (Windows NT 10.0; Win64; x64) AppleWebKit/537.36 (KHTML, like Gecko) draw.io/24.7.17 Chrome/128.0.6613.36 Electron/32.0.1 Safari/537.36" version="24.7.17">
  <diagram id="aEZYs26sPYkz4F97VQ5E" name="Page-1">
    <mxGraphModel dx="1418" dy="1928" grid="1" gridSize="10" guides="1" tooltips="1" connect="1" arrows="1" fold="1" page="1" pageScale="1" pageWidth="850" pageHeight="1100" math="0" shadow="0">
      <root>
        <mxCell id="0" />
        <mxCell id="1" parent="0" />
        <mxCell id="ZTzQj_1La3hMfgjJEtww-28" style="rounded=0;orthogonalLoop=1;jettySize=auto;html=1;entryX=1.04;entryY=0.387;entryDx=0;entryDy=0;entryPerimeter=0;" parent="1" source="ZTzQj_1La3hMfgjJEtww-1" target="ZTzQj_1La3hMfgjJEtww-14" edge="1">
          <mxGeometry relative="1" as="geometry" />
        </mxCell>
        <mxCell id="ZTzQj_1La3hMfgjJEtww-1" value="playerstats" style="rounded=0;whiteSpace=wrap;html=1;" parent="1" vertex="1">
          <mxGeometry x="760" y="194" width="120" height="60" as="geometry" />
        </mxCell>
        <mxCell id="ZTzQj_1La3hMfgjJEtww-4" value="startgame/startwar/gobattle/endturn" style="edgeStyle=orthogonalEdgeStyle;rounded=0;orthogonalLoop=1;jettySize=auto;html=1;" parent="1" source="ZTzQj_1La3hMfgjJEtww-2" target="ZTzQj_1La3hMfgjJEtww-3" edge="1">
          <mxGeometry relative="1" as="geometry" />
        </mxCell>
        <mxCell id="ZTzQj_1La3hMfgjJEtww-2" value="UI" style="rounded=0;whiteSpace=wrap;html=1;" parent="1" vertex="1">
          <mxGeometry x="560" y="-30" width="120" height="60" as="geometry" />
        </mxCell>
        <mxCell id="ZTzQj_1La3hMfgjJEtww-6" value="startgame/startwar/gobattle/endturn" style="edgeStyle=orthogonalEdgeStyle;rounded=0;orthogonalLoop=1;jettySize=auto;html=1;exitX=0.5;exitY=1;exitDx=0;exitDy=0;" parent="1" source="ZTzQj_1La3hMfgjJEtww-3" target="ZTzQj_1La3hMfgjJEtww-5" edge="1">
          <mxGeometry x="-0.5" relative="1" as="geometry">
            <mxPoint x="620" y="180" as="sourcePoint" />
            <mxPoint as="offset" />
          </mxGeometry>
        </mxCell>
        <mxCell id="ZTzQj_1La3hMfgjJEtww-15" value="init" style="rounded=0;orthogonalLoop=1;jettySize=auto;html=1;" parent="1" source="ZTzQj_1La3hMfgjJEtww-3" target="ZTzQj_1La3hMfgjJEtww-14" edge="1">
          <mxGeometry relative="1" as="geometry" />
        </mxCell>
        <mxCell id="ZTzQj_1La3hMfgjJEtww-18" value="setGameState/updategamestats" style="edgeStyle=orthogonalEdgeStyle;rounded=0;orthogonalLoop=1;jettySize=auto;html=1;" parent="1" source="ZTzQj_1La3hMfgjJEtww-3" target="ZTzQj_1La3hMfgjJEtww-17" edge="1">
          <mxGeometry x="0.04" relative="1" as="geometry">
            <mxPoint as="offset" />
          </mxGeometry>
        </mxCell>
        <mxCell id="ZTzQj_1La3hMfgjJEtww-3" value="main" style="rounded=0;whiteSpace=wrap;html=1;" parent="1" vertex="1">
          <mxGeometry x="560" y="110" width="120" height="60" as="geometry" />
        </mxCell>
        <mxCell id="ZTzQj_1La3hMfgjJEtww-21" style="edgeStyle=orthogonalEdgeStyle;rounded=0;orthogonalLoop=1;jettySize=auto;html=1;entryX=0;entryY=0.5;entryDx=0;entryDy=0;" parent="1" source="ZTzQj_1La3hMfgjJEtww-17" target="ZTzQj_1La3hMfgjJEtww-14" edge="1">
          <mxGeometry relative="1" as="geometry" />
        </mxCell>
        <mxCell id="ZTzQj_1La3hMfgjJEtww-17" value="gamestate" style="rounded=0;whiteSpace=wrap;html=1;" parent="1" vertex="1">
          <mxGeometry x="120" y="110" width="120" height="60" as="geometry" />
        </mxCell>
        <mxCell id="ZTzQj_1La3hMfgjJEtww-8" value="" style="edgeStyle=orthogonalEdgeStyle;rounded=0;orthogonalLoop=1;jettySize=auto;html=1;" parent="1" source="ZTzQj_1La3hMfgjJEtww-5" target="ZTzQj_1La3hMfgjJEtww-7" edge="1">
          <mxGeometry relative="1" as="geometry" />
        </mxCell>
        <mxCell id="ZTzQj_1La3hMfgjJEtww-11" value="" style="edgeStyle=orthogonalEdgeStyle;rounded=0;orthogonalLoop=1;jettySize=auto;html=1;" parent="1" source="ZTzQj_1La3hMfgjJEtww-5" target="ZTzQj_1La3hMfgjJEtww-10" edge="1">
          <mxGeometry relative="1" as="geometry" />
        </mxCell>
        <mxCell id="ZTzQj_1La3hMfgjJEtww-22" style="edgeStyle=none;rounded=0;orthogonalLoop=1;jettySize=auto;html=1;entryX=1;entryY=0.5;entryDx=0;entryDy=0;" parent="1" source="ZTzQj_1La3hMfgjJEtww-5" target="ZTzQj_1La3hMfgjJEtww-14" edge="1">
          <mxGeometry relative="1" as="geometry" />
        </mxCell>
        <mxCell id="ZTzQj_1La3hMfgjJEtww-24" value="" style="edgeStyle=none;rounded=0;orthogonalLoop=1;jettySize=auto;html=1;" parent="1" source="ZTzQj_1La3hMfgjJEtww-5" target="ZTzQj_1La3hMfgjJEtww-23" edge="1">
          <mxGeometry relative="1" as="geometry" />
        </mxCell>
        <mxCell id="ZTzQj_1La3hMfgjJEtww-5" value="gameboard" style="rounded=0;whiteSpace=wrap;html=1;" parent="1" vertex="1">
          <mxGeometry x="560" y="280" width="120" height="60" as="geometry" />
        </mxCell>
        <mxCell id="ZTzQj_1La3hMfgjJEtww-27" style="edgeStyle=orthogonalEdgeStyle;rounded=0;orthogonalLoop=1;jettySize=auto;html=1;entryX=0.5;entryY=1;entryDx=0;entryDy=0;" parent="1" source="ZTzQj_1La3hMfgjJEtww-23" target="ZTzQj_1La3hMfgjJEtww-1" edge="1">
          <mxGeometry relative="1" as="geometry" />
        </mxCell>
        <mxCell id="ZTzQj_1La3hMfgjJEtww-23" value="gamecontroller" style="rounded=0;whiteSpace=wrap;html=1;" parent="1" vertex="1">
          <mxGeometry x="760" y="280" width="120" height="60" as="geometry" />
        </mxCell>
        <mxCell id="ZTzQj_1La3hMfgjJEtww-13" value="" style="edgeStyle=orthogonalEdgeStyle;rounded=0;orthogonalLoop=1;jettySize=auto;html=1;" parent="1" source="ZTzQj_1La3hMfgjJEtww-10" target="ZTzQj_1La3hMfgjJEtww-12" edge="1">
          <mxGeometry relative="1" as="geometry" />
        </mxCell>
        <mxCell id="ZTzQj_1La3hMfgjJEtww-10" value="continentFactory/&lt;br&gt;continent" style="rounded=0;whiteSpace=wrap;html=1;" parent="1" vertex="1">
          <mxGeometry x="400" y="390" width="120" height="60" as="geometry" />
        </mxCell>
        <mxCell id="ZTzQj_1La3hMfgjJEtww-26" value="belongs to" style="edgeStyle=orthogonalEdgeStyle;rounded=0;orthogonalLoop=1;jettySize=auto;html=1;entryX=0.447;entryY=0.993;entryDx=0;entryDy=0;entryPerimeter=0;" parent="1" source="ZTzQj_1La3hMfgjJEtww-12" target="ZTzQj_1La3hMfgjJEtww-19" edge="1">
          <mxGeometry relative="1" as="geometry" />
        </mxCell>
        <mxCell id="ZTzQj_1La3hMfgjJEtww-12" value="region" style="rounded=0;whiteSpace=wrap;html=1;" parent="1" vertex="1">
          <mxGeometry x="400" y="530" width="120" height="60" as="geometry" />
        </mxCell>
        <mxCell id="ZTzQj_1La3hMfgjJEtww-7" value="regionFactory/&lt;br&gt;region" style="rounded=0;whiteSpace=wrap;html=1;" parent="1" vertex="1">
          <mxGeometry x="560" y="390" width="120" height="60" as="geometry" />
        </mxCell>
        <mxCell id="ZTzQj_1La3hMfgjJEtww-20" value="" style="edgeStyle=orthogonalEdgeStyle;rounded=0;orthogonalLoop=1;jettySize=auto;html=1;" parent="1" source="ZTzQj_1La3hMfgjJEtww-14" target="ZTzQj_1La3hMfgjJEtww-19" edge="1">
          <mxGeometry relative="1" as="geometry" />
        </mxCell>
        <mxCell id="ZTzQj_1La3hMfgjJEtww-14" value="gameplayers" style="rounded=0;whiteSpace=wrap;html=1;" parent="1" vertex="1">
          <mxGeometry x="230" y="190" width="120" height="60" as="geometry" />
        </mxCell>
        <mxCell id="ZTzQj_1La3hMfgjJEtww-19" value="playerFactory/&lt;br&gt;player" style="rounded=0;whiteSpace=wrap;html=1;" parent="1" vertex="1">
          <mxGeometry x="230" y="280" width="120" height="60" as="geometry" />
        </mxCell>
        <mxCell id="GmXbh9t2dOhmwRmFGYd1-1" value="AIPlayer" style="rounded=0;whiteSpace=wrap;html=1;" vertex="1" parent="1">
          <mxGeometry x="630" y="590" width="120" height="60" as="geometry" />
        </mxCell>
      </root>
    </mxGraphModel>
  </diagram>
</mxfile>
